<svg width="64" height="64" viewBox="0 0 64 64" fill="none" xmlns="http://www.w3.org/2000/svg">
<path d="M17 22C17.5523 22 18 21.5523 18 21C18 20.4477 17.5523 20 17 20C16.4477 20 16 20.4477 16 21C16 21.5523 16.4477 22 17 22Z" fill="#223361"/>
<path d="M27 22C27.5523 22 28 21.5523 28 21C28 20.4477 27.5523 20 27 20C26.4477 20 26 20.4477 26 21C26 21.5523 26.4477 22 27 22Z" fill="#223361"/>
<path d="M24.4498 28.5H25.4644C25.221 30.1939 23.7601 31.5 22 31.5C20.2399 31.5 18.779 30.1939 18.5356 28.5H19.5502C19.7822 29.6401 20.7921 30.5 22 30.5C23.2079 30.5 24.2178 29.6401 24.4498 28.5Z" fill="#223361" stroke="#223361"/>
<mask id="path-4-inside-1_161_27" fill="white">
<path d="M59 41V60C59 60.552 58.552 61 58 61H46C45.448 61 45 60.552 45 60V59C46.654 59 48 57.654 48 56V54.8C50.306 54.266 52.24 52.603 53.043 50.303C54.342 46.576 55 41.764 55 36C55 30.236 54.342 25.424 53.043 21.697C52.062 18.888 49.405 17 46.43 17H40C38.87 17 37.838 17.391 37 18.026V13.099C37 9.794 34.734 6.911 31.562 6.103C28.923 2.858 25.02 1 20.832 1C13.205 1 7 7.205 7 14.832V23C7 25.463 8.794 27.503 11.178 27.913C11.715 30.959 13.504 33.575 16 35.207V37.279L5.786 40.685C2.924 41.638 1 44.307 1 47.324V55H40V56C40 57.654 41.346 59 43 59V60C43 61.654 44.346 63 46 63H58C59.654 63 61 61.654 61 60V41C61 40.448 61.448 40 62 40H63V38H62C60.346 38 59 39.346 59 41ZM51.154 22.355C51.996 24.771 53 29.1 53 36C53 42.9 51.996 47.229 51.154 49.645C50.454 51.651 48.556 53 46.43 53H43V43H44C45.654 43 47 41.654 47 40V32C47 30.346 45.654 29 44 29H43V19H46.43C48.556 19 50.454 20.349 51.154 22.355ZM22 44.302L23 45.135V53H21V45.135L22 44.302ZM32.822 27.917C33.673 27.775 34.443 27.415 35.091 26.899C35.517 29.227 37.551 31 40 31H44C44.552 31 45 31.448 45 32V40C45 40.552 44.552 41 44 41H40C39.71 41 39.431 41.038 39.154 41.086C38.848 40.931 38.535 40.792 38.213 40.685L28 37.279V35.207C30.495 33.576 32.283 30.962 32.822 27.917ZM33 20.184C34.161 20.598 35 21.698 35 23C35 24.302 34.161 25.402 33 25.816V20.184ZM27.27 39.144L28.828 39.663L27.38 46.181L23.482 42.932L27.27 39.144ZM25 46.802L28.62 49.819L30.736 40.3L36.688 42.284C35.66 43.2 35 44.519 35 46V50C35 51.13 35.391 52.162 36.026 53H25V46.802ZM37 50V46C37 44.346 38.346 43 40 43H41V53H40C38.346 53 37 51.654 37 50ZM40 19H41V29H40C38.346 29 37 27.654 37 26V23V22C37 20.346 38.346 19 40 19ZM9 23C9 21.698 9.839 20.598 11 20.184V25.815C9.839 25.402 9 24.302 9 23ZM11.192 18.082C10.376 18.216 9.633 18.546 9 19.026V14.832C9 8.308 14.308 3 20.832 3C24.446 3 27.814 4.619 30.073 7.442L30.448 7.909L30.803 7.98C33.235 8.467 35 10.619 35 13.099V19.026C34.367 18.547 33.624 18.216 32.808 18.082C32.18 15.736 30.041 14 27.5 14C26.317 14 25.146 14.391 24.2 15.101L22 16.75L19.801 15.101C18.854 14.391 17.683 14 16.5 14C13.959 14 11.82 15.736 11.192 18.082ZM13 26V19.5C13 17.57 14.57 16 16.5 16C17.253 16 17.998 16.249 18.601 16.7L22 19.25L25.4 16.7C26.002 16.249 26.747 16 27.5 16C29.43 16 31 17.57 31 19.5V26C31 30.963 26.963 35 22 35C17.037 35 13 30.963 13 26ZM22 37C23.412 37 24.758 36.723 26 36.236V37.586L22 41.586L18 37.586V36.236C19.242 36.723 20.588 37 22 37ZM16.73 39.144L20.519 42.933L16.621 46.182L15.173 39.664L16.73 39.144ZM3 47.324C3 45.169 4.374 43.262 6.419 42.581L13.264 40.299L15.38 49.818L19 46.802V53H11V46H9V53H3V47.324ZM42 56V55H46V56C46 56.552 45.552 57 45 57H43C42.448 57 42 56.552 42 56Z"/>
</mask>
<path d="M59 41V60C59 60.552 58.552 61 58 61H46C45.448 61 45 60.552 45 60V59C46.654 59 48 57.654 48 56V54.8C50.306 54.266 52.24 52.603 53.043 50.303C54.342 46.576 55 41.764 55 36C55 30.236 54.342 25.424 53.043 21.697C52.062 18.888 49.405 17 46.43 17H40C38.87 17 37.838 17.391 37 18.026V13.099C37 9.794 34.734 6.911 31.562 6.103C28.923 2.858 25.02 1 20.832 1C13.205 1 7 7.205 7 14.832V23C7 25.463 8.794 27.503 11.178 27.913C11.715 30.959 13.504 33.575 16 35.207V37.279L5.786 40.685C2.924 41.638 1 44.307 1 47.324V55H40V56C40 57.654 41.346 59 43 59V60C43 61.654 44.346 63 46 63H58C59.654 63 61 61.654 61 60V41C61 40.448 61.448 40 62 40H63V38H62C60.346 38 59 39.346 59 41ZM51.154 22.355C51.996 24.771 53 29.1 53 36C53 42.9 51.996 47.229 51.154 49.645C50.454 51.651 48.556 53 46.43 53H43V43H44C45.654 43 47 41.654 47 40V32C47 30.346 45.654 29 44 29H43V19H46.43C48.556 19 50.454 20.349 51.154 22.355ZM22 44.302L23 45.135V53H21V45.135L22 44.302ZM32.822 27.917C33.673 27.775 34.443 27.415 35.091 26.899C35.517 29.227 37.551 31 40 31H44C44.552 31 45 31.448 45 32V40C45 40.552 44.552 41 44 41H40C39.71 41 39.431 41.038 39.154 41.086C38.848 40.931 38.535 40.792 38.213 40.685L28 37.279V35.207C30.495 33.576 32.283 30.962 32.822 27.917ZM33 20.184C34.161 20.598 35 21.698 35 23C35 24.302 34.161 25.402 33 25.816V20.184ZM27.27 39.144L28.828 39.663L27.38 46.181L23.482 42.932L27.27 39.144ZM25 46.802L28.62 49.819L30.736 40.3L36.688 42.284C35.66 43.2 35 44.519 35 46V50C35 51.13 35.391 52.162 36.026 53H25V46.802ZM37 50V46C37 44.346 38.346 43 40 43H41V53H40C38.346 53 37 51.654 37 50ZM40 19H41V29H40C38.346 29 37 27.654 37 26V23V22C37 20.346 38.346 19 40 19ZM9 23C9 21.698 9.839 20.598 11 20.184V25.815C9.839 25.402 9 24.302 9 23ZM11.192 18.082C10.376 18.216 9.633 18.546 9 19.026V14.832C9 8.308 14.308 3 20.832 3C24.446 3 27.814 4.619 30.073 7.442L30.448 7.909L30.803 7.98C33.235 8.467 35 10.619 35 13.099V19.026C34.367 18.547 33.624 18.216 32.808 18.082C32.18 15.736 30.041 14 27.5 14C26.317 14 25.146 14.391 24.2 15.101L22 16.75L19.801 15.101C18.854 14.391 17.683 14 16.5 14C13.959 14 11.82 15.736 11.192 18.082ZM13 26V19.5C13 17.57 14.57 16 16.5 16C17.253 16 17.998 16.249 18.601 16.7L22 19.25L25.4 16.7C26.002 16.249 26.747 16 27.5 16C29.43 16 31 17.57 31 19.5V26C31 30.963 26.963 35 22 35C17.037 35 13 30.963 13 26ZM22 37C23.412 37 24.758 36.723 26 36.236V37.586L22 41.586L18 37.586V36.236C19.242 36.723 20.588 37 22 37ZM16.73 39.144L20.519 42.933L16.621 46.182L15.173 39.664L16.73 39.144ZM3 47.324C3 45.169 4.374 43.262 6.419 42.581L13.264 40.299L15.38 49.818L19 46.802V53H11V46H9V53H3V47.324ZM42 56V55H46V56C46 56.552 45.552 57 45 57H43C42.448 57 42 56.552 42 56Z" fill="#223361" stroke="#223361" stroke-width="2" mask="url(#path-4-inside-1_161_27)"/>
</svg>
