<svg width="56" height="56" viewBox="0 0 56 56" fill="none" xmlns="http://www.w3.org/2000/svg">
<path d="M28 51.3333C40.8867 51.3333 51.3334 40.8866 51.3334 28C51.3334 15.1133 40.8867 4.66663 28 4.66663C15.1134 4.66663 4.66669 15.1133 4.66669 28C4.66669 40.8866 15.1134 51.3333 28 51.3333Z" stroke="#13A9FE" stroke-width="2" stroke-linecap="round" stroke-linejoin="round"/>
<path d="M28 37.3333C33.1547 37.3333 37.3334 33.1546 37.3334 28C37.3334 22.8453 33.1547 18.6666 28 18.6666C22.8454 18.6666 18.6667 22.8453 18.6667 28C18.6667 33.1546 22.8454 37.3333 28 37.3333Z" stroke="#13A9FE" stroke-width="2" stroke-linecap="round" stroke-linejoin="round"/>
<path d="M11.5034 11.5033L21.3967 21.3966" stroke="#13A9FE" stroke-width="2" stroke-linecap="round" stroke-linejoin="round"/>
<path d="M34.6033 34.6033L44.4967 44.4966" stroke="#13A9FE" stroke-width="2" stroke-linecap="round" stroke-linejoin="round"/>
<path d="M34.6033 21.3966L44.4967 11.5033" stroke="#13A9FE" stroke-width="2" stroke-linecap="round" stroke-linejoin="round"/>
<path d="M34.6033 21.3967L42.84 13.16" stroke="#13A9FE" stroke-width="2" stroke-linecap="round" stroke-linejoin="round"/>
<path d="M11.5034 44.4966L21.3967 34.6033" stroke="#13A9FE" stroke-width="2" stroke-linecap="round" stroke-linejoin="round"/>
</svg>
