<svg width="56" height="56" viewBox="0 0 56 56" fill="none" xmlns="http://www.w3.org/2000/svg">
<path d="M25.6667 42.2499H25.9167V41.9999V30.5833H30.0833V41.9999V42.2499H30.3333H32.7297H32.9537L32.9782 42.0272C33.2777 39.2994 34.6675 37.0331 36.9735 34.5231C37.0562 34.4338 37.2793 34.2002 37.5531 33.9134C37.7124 33.7466 37.8889 33.5618 38.065 33.3768C38.5361 32.8821 39.0165 32.3742 39.1244 32.2397L39.1245 32.2395C40.8019 30.1439 41.8533 27.6171 42.1577 24.9501C42.462 22.2831 42.0068 19.5844 40.8446 17.1648C39.6824 14.7451 37.8604 12.7029 35.5884 11.2734C33.3164 9.8439 30.6869 9.08516 28.0026 9.08459C25.3183 9.08402 22.6884 9.84163 20.4158 11.2702C18.1432 12.6987 16.3204 14.7401 15.1571 17.1593C13.9939 19.5784 13.5375 22.2769 13.8407 24.944C14.1439 27.6112 15.1942 30.1384 16.8708 32.2347L16.8711 32.2352C16.9801 32.3708 17.4622 32.8799 17.9341 33.3752C18.0827 33.5311 18.2314 33.6868 18.3697 33.8316C18.6787 34.1551 18.9358 34.4244 19.0238 34.5203L19.0239 34.5204C21.3324 37.0329 22.7223 39.2993 23.0218 42.0272L23.0463 42.2499H23.2703H25.6667ZM23.3333 46.4166H23.0833V46.6666V48.9999V49.2499H23.3333H32.6667H32.9167V48.9999V46.6666V46.4166H32.6667H23.3333ZM13.6212 34.8437C11.4531 32.1348 10.0943 28.8686 9.70134 25.4212C9.30841 21.9738 9.89733 18.4856 11.4003 15.3583C12.9032 12.231 15.259 9.59188 18.1962 7.74494C21.1335 5.898 24.5328 4.91839 28.0025 4.91895C31.4722 4.9195 34.8711 5.9002 37.8078 7.74808C40.7445 9.59596 43.0994 12.2358 44.6014 15.3636C46.1033 18.4914 46.6911 21.9798 46.2971 25.4271C45.903 28.8743 44.5432 32.1401 42.3742 34.8483C42.0498 35.2522 41.6026 35.713 41.0946 36.2364C41.0506 36.2817 41.0062 36.3274 40.9614 36.3736C40.4027 36.9498 39.7868 37.5924 39.2154 38.2902C38.0773 39.6802 37.0833 41.3275 37.0833 43.1666V48.9999C37.0833 50.1713 36.618 51.2947 35.7897 52.123C34.9614 52.9513 33.838 53.4166 32.6667 53.4166H23.3333C22.162 53.4166 21.0386 52.9513 20.2103 52.123C19.382 51.2947 18.9167 50.1713 18.9167 48.9999V43.1666C18.9167 41.3275 17.9221 39.6802 16.7831 38.2896C16.2113 37.5915 15.5949 36.9485 15.0356 36.3717C14.9921 36.3267 14.9489 36.2823 14.9062 36.2382C14.3961 35.7126 13.9469 35.2496 13.6212 34.8437Z" fill="#223361" stroke="#D9D9D9" stroke-width="0.5"/>
</svg>
