<svg width="48" height="50" viewBox="0 0 48 50" fill="none" xmlns="http://www.w3.org/2000/svg">
<path d="M0.757717 49.5869C0.892208 36.8914 11.2581 26.5933 24 26.5933C36.7419 26.5933 47.1078 36.8914 47.2423 49.5869H43.4676C43.3331 38.971 34.647 30.3677 24 30.3677C13.353 30.3677 4.66684 38.971 4.53238 49.5869H0.757717Z" fill="#13A9FE" stroke="#D9D9D9" stroke-width="0.5"/>
<path d="M24 30.3832C15.9013 30.3832 9.30519 23.7872 9.30519 15.6884C9.30519 7.58936 15.9016 0.978027 24 0.978027C32.0987 0.978027 38.6948 7.5741 38.6948 15.6728C38.6948 23.7719 32.0984 30.3832 24 30.3832ZM24 4.75243C17.9807 4.75243 13.0796 9.65356 13.0796 15.6728C13.0796 21.6921 17.9807 26.5932 24 26.5932C30.0193 26.5932 34.9204 21.6921 34.9204 15.6728C34.9204 9.65356 30.0193 4.75243 24 4.75243Z" fill="#13A9FE" stroke="#D9D9D9" stroke-width="0.5"/>
<path d="M28.2744 28.496H19.7256L21.8628 34.892H26.1372L28.2744 28.496Z" fill="#13A9FE"/>
<path d="M19.7256 49.8368H28.2744L26.1372 37.0292H21.8628L19.7256 49.8368Z" fill="#13A9FE"/>
</svg>
