<svg width="52" height="32" viewBox="0 0 52 32" fill="none" xmlns="http://www.w3.org/2000/svg">
<path d="M48.0397 20.509L48.0655 20.7299H48.288H49.52C50.0478 20.7299 50.5539 20.9396 50.9271 21.3128C51.3003 21.686 51.51 22.1922 51.51 22.7199V29.4399C51.51 29.9677 51.3003 30.4739 50.9271 30.8471C50.5539 31.2203 50.0478 31.4299 49.52 31.4299H42.8C42.2722 31.4299 41.766 31.2203 41.3928 30.8471C41.0196 30.4739 40.81 29.9677 40.81 29.4399V22.7199C40.81 22.1922 41.0196 21.686 41.3928 21.3128C41.766 20.9396 42.2722 20.7299 42.8 20.7299H43.696H43.9888L43.9429 20.4407C43.4527 17.354 41.9985 14.5015 39.7885 12.2915C37.5784 10.0815 34.7259 8.62727 31.6392 8.13704L31.35 8.09111V8.38395V9.27995C31.35 9.80773 31.1403 10.3139 30.7671 10.6871C30.3939 11.0603 29.8878 11.2699 29.36 11.2699H22.64C22.1122 11.2699 21.606 11.0603 21.2328 10.6871C20.8596 10.3139 20.65 9.80773 20.65 9.27995V8.38395V8.09111L20.3608 8.13704C17.274 8.62727 14.4215 10.0815 12.2115 12.2915C10.0015 14.5015 8.54731 17.354 8.05708 20.4407L8.01114 20.7299H8.30398H9.19998C9.72776 20.7299 10.2339 20.9396 10.6071 21.3128C10.9803 21.686 11.19 22.1922 11.19 22.7199V29.4399C11.19 29.9677 10.9803 30.4739 10.6071 30.8471C10.2339 31.2203 9.72776 31.4299 9.19998 31.4299H2.47998C1.9522 31.4299 1.44604 31.2203 1.07284 30.8471C0.699641 30.4739 0.489981 29.9677 0.489981 29.4399V22.7199C0.489981 22.1922 0.699641 21.686 1.07284 21.3128C1.44604 20.9396 1.9522 20.7299 2.47998 20.7299H3.71198H3.93445L3.96029 20.509C4.51368 15.7759 6.84471 11.43 10.4815 8.35074L11.0021 7.90995H10.32H6.06398H5.95218L5.87764 7.99328C5.45774 8.46274 4.90519 8.79365 4.29311 8.9422C3.68102 9.09076 3.03826 9.04997 2.44987 8.82522C1.86148 8.60048 1.35519 8.20237 0.998011 7.68359C0.640829 7.16481 0.449585 6.5498 0.449585 5.91995C0.449585 5.29009 0.640829 4.67509 0.998011 4.1563C1.35519 3.63752 1.86148 3.23942 2.44987 3.01467C3.03826 2.78993 3.68102 2.74913 4.29311 2.89769C4.90519 3.04624 5.45774 3.37715 5.87764 3.84661L5.95218 3.92995H6.06398H20.4H20.65V3.67995V2.55995C20.65 2.03217 20.8596 1.526 21.2328 1.1528C21.606 0.779607 22.1122 0.569946 22.64 0.569946H29.36C29.8878 0.569946 30.3939 0.779607 30.7671 1.1528C31.1403 1.526 31.35 2.03217 31.35 2.55995V3.67995V3.92995H31.6H45.936H46.0478L46.1223 3.84661C46.5422 3.37715 47.0948 3.04624 47.7069 2.89769C48.3189 2.74913 48.9617 2.78993 49.5501 3.01467C50.1385 3.23942 50.6448 3.63752 51.0019 4.1563C51.3591 4.67509 51.5504 5.29009 51.5504 5.91995C51.5504 6.5498 51.3591 7.16481 51.0019 7.68359C50.6448 8.20237 50.1385 8.60048 49.5501 8.82522C48.9617 9.04997 48.3189 9.09076 47.7069 8.9422C47.0948 8.79365 46.5422 8.46274 46.1223 7.99328L46.0478 7.90995H45.936H41.68H40.9978L41.5184 8.35074C45.1553 11.43 47.4863 15.7759 48.0397 20.509ZM6.95998 27.4499H7.20998V27.1999V24.9599V24.7099H6.95998H4.71998H4.46998V24.9599V27.1999V27.4499H4.71998H6.95998ZM27.12 7.28995H27.37V7.03995V4.79995V4.54995H27.12H24.88H24.63V4.79995V7.03995V7.28995H24.88H27.12ZM47.28 27.4499H47.53V27.1999V24.9599V24.7099H47.28H45.04H44.79V24.9599V27.1999V27.4499H45.04H47.28Z" fill="#13A9FE" stroke="#D9D9D9" stroke-width="0.5"/>
</svg>
